<svg version="1.1" xmlns="http://www.w3.org/2000/svg" style="display: block;" viewBox="0 0 2048 2048" preserveAspectRatio="xMidYMid meet">
<path transform="translate(0,0)" fill="currentcolor" d="M 664.62 773.756 C 668.858 778.261 673.272 782.586 677.537 787.062 C 692.597 802.864 699.796 819.815 699.167 841.762 C 698.557 863.046 690.134 881.435 674.444 895.912 A 80.824 80.824 0 0 1 615.888 917.138 C 599.928 916.449 585.658 911.316 572.825 901.854 C 553.189 887.377 531.681 864.082 513.683 846.995 L 384.698 723.353 L 217.255 563.284 A 2042.48 2042.48 0 0 0 178.865 526.982 C 169.244 518.089 159.042 509.409 150.249 499.693 C 133.174 480.825 125.212 456.914 126.578 431.554 C 128.149 402.42 141.075 379.157 162.664 360.029 C 174.591 349.462 187.748 340.102 200.267 330.238 L 255.595 285.99 L 423.51 151.509 L 532.076 63.7059 C 549.862 49.4391 568.098 32.7377 587.592 21.0429 C 602.094 12.3435 617.586 8.6253 634.487 9.78779 C 656.107 11.2749 676.177 20.3583 690.434 36.8438 C 704.893 53.5635 709.822 74.3562 707.982 96.0823 C 704.975 131.605 681.812 145.902 656.894 166.944 C 644.577 172.545 612.559 200.144 601.146 210.283 C 603.484 226.183 601.986 244.32 601.989 260.445 L 601.967 356.436 L 602.015 597.079 C 602.014 616.047 604.079 702.22 599.877 714.849 C 606.112 720.996 659.577 773.064 663.969 774.231 L 664.62 773.756 z"/>
<path transform="translate(0,0)" fill="rgb(214,163,47)" d="M 311.34 440.184 C 342.3 418.513 371.308 393.545 400.708 369.804 L 500.1 290.266 C 533.462 263.325 566.637 235.743 601.146 210.283 C 603.484 226.183 601.986 244.32 601.989 260.445 L 601.967 356.436 L 602.015 597.079 C 602.014 616.047 604.079 702.22 599.877 714.849 C 564.09 682.613 529.623 648.276 494.908 614.874 L 363.901 490.452 C 346.314 473.805 329.327 456.383 311.34 440.184 z"/>
<path transform="translate(0,0)" fill="currentcolor" d="M 1008.17 167.787 C 988.411 150.934 972.861 133.474 970.531 106.552 C 968.834 86.9403 974.493 66.4178 987.248 51.2835 C 1002.76 32.8797 1023.76 23.7815 1047.49 22.0007 C 1069.66 20.3364 1092.31 21.1355 1114.55 20.8186 L 1225.38 18.9454 L 1519.92 14.8629 A 16685.4 16685.4 0 0 1 1749.54 11.1502 A 2570.32 2570.32 0 0 0 1796.21 10.5553 C 1810.25 10.2228 1824.42 9.27869 1838.42 10.7478 C 1859.24 12.9329 1877.22 20.6851 1893.17 34.3459 A 92.2491 92.2491 0 0 1 1924.87 97.4407 C 1926.56 122.919 1916.63 168.777 1912.44 195.498 L 1887.69 357.49 L 1826 768.22 A 13783 13783 0 0 1 1801.45 930.295 C 1797.87 953.16 1795.57 976.834 1790.8 999.429 C 1787.66 1014.31 1782.22 1026.2 1772.09 1037.62 C 1757.35 1054.24 1737.89 1063.96 1715.59 1065.04 C 1695.27 1066.03 1675.21 1057.69 1660.48 1043.89 C 1645.46 1029.83 1636.61 1012.44 1636.05 991.759 C 1635.85 984.453 1636.67 977.233 1637.57 969.997 C 1639.94 962.452 1640.43 953.311 1641.51 945.449 L 1647.61 901.038 A 7446.09 7446.09 0 0 1 1668.65 757.211 L 1720.09 415.8 A 22616.1 22616.1 0 0 0 1757.17 167.363 C 1683.97 170.473 1610.42 169.852 1537.17 171.236 L 1059.04 178.046 C 1045.35 178.131 1032.2 177.292 1019.6 171.362 C 1016.14 169.734 1012.01 167.188 1008.17 167.787 z"/>
<path transform="translate(0,0)" fill="rgb(254,193,58)" d="M 656.894 166.944 C 660.168 168.67 663.659 168.738 667.292 168.889 C 690.415 169.851 713.815 169.122 736.967 169.118 L 867.872 169.145 L 957.674 169.002 C 974.186 168.928 991.814 169.82 1008.17 167.787 C 1012.01 167.188 1016.14 169.734 1019.6 171.362 C 1032.2 177.292 1045.35 178.131 1059.04 178.046 C 1055.64 195.438 1057.89 223.518 1058.22 241.94 C 1060.53 369.488 1089.28 503.625 1152.65 615.056 C 1143.32 618.477 1135.87 622.559 1128.28 629 C 1107.9 646.282 994.984 775.097 988.277 774.304 C 973.111 772.122 957.316 772.651 942.006 772.571 L 870.799 772.346 C 817.602 771.83 764.734 770.192 711.501 771.851 C 696.188 772.328 679.661 771.213 664.62 773.756 L 663.969 774.231 C 659.577 773.064 606.112 720.996 599.877 714.849 C 604.079 702.22 602.014 616.047 602.015 597.079 L 601.967 356.436 L 601.989 260.445 C 601.986 244.32 603.484 226.183 601.146 210.283 C 612.559 200.144 644.577 172.545 656.894 166.944 z"/>
<path transform="translate(0,0)" fill="currentcolor" d="M 1040.21 1872.3 C 1045.52 1873.65 1050.94 1873.79 1056.3 1874.84 A 82.6423 82.6423 0 0 1 1100.73 1899.55 A 78.5701 78.5701 0 0 1 1121.46 1955.61 C 1120.69 1975.54 1111.32 1994.39 1096.67 2007.81 C 1085.3 2018.21 1070.31 2026.27 1054.95 2028.41 C 1029.26 2031.98 996.785 2030.43 970.452 2030.91 L 785.462 2033.59 L 646.327 2036.04 A 9317.37 9317.37 0 0 0 504.788 2037.4 A 6130.25 6130.25 0 0 1 314.365 2040.7 C 289.819 2040.83 264.903 2042.23 240.399 2041.16 C 215.27 2040.08 190.739 2030.02 173.689 2011.17 C 156.209 1991.85 147.574 1967.48 149.161 1941.45 C 150.425 1920.72 154.908 1899.85 158.062 1879.32 L 173.648 1775.05 L 228.067 1419.95 L 267.848 1160.42 A 4599.13 4599.13 0 0 0 278.77 1089.23 C 280.832 1074.79 281.783 1059.14 285.415 1045.02 C 289.743 1028.21 298.607 1013.68 311.727 1002.29 C 327.446 988.633 347.961 981.093 368.877 982.678 C 391.109 984.364 410.675 995.483 424.851 1012.43 C 440.532 1031.17 443.411 1052.66 441.404 1076.27 C 437.891 1083.94 436.077 1108.24 434.583 1118 L 418.069 1224.58 L 351.641 1652.65 L 328.264 1803.87 C 324.139 1830.07 321.033 1856.73 315.284 1882.62 C 322.854 1884.61 329.649 1884.92 337.451 1884.97 C 389.841 1885.35 442.491 1882.94 494.904 1882.32 L 923.211 1875.23 C 938.734 1874.89 1030.89 1875.88 1040.21 1872.3 z"/>
<path transform="translate(0,0)" fill="currentcolor" d="M 1152.65 615.056 C 1174.08 607.661 1195.22 608.03 1215.75 618.187 A 74.9356 74.9356 0 0 1 1254.05 662.602 A 81.6446 81.6446 0 0 1 1249.17 724.491 C 1246.18 730.311 1242.29 735.392 1238.13 740.419 C 1243.02 747.751 1260.81 763.512 1262.33 769.794 L 1261.21 770.371 C 1263.12 770.934 1264.52 771.505 1266.08 772.774 C 1275.54 780.446 1284.23 789.92 1293.1 798.323 C 1309.68 814.03 1327.32 829.446 1346.04 842.58 C 1346.24 842.817 1346.42 843.076 1346.65 843.29 C 1352.84 849.119 1365.52 850.903 1373.06 855.479 C 1380.95 860.259 1388.64 870.593 1397.17 873.293 L 1396.63 873.576 L 1397.79 874.873 L 1396.57 874.661 L 1397.28 875.876 C 1409.48 897.111 1413.57 922.314 1406.95 946.01 C 1403.66 957.797 1397.59 966.576 1389.89 975.93 C 1379.16 988.967 1366.51 1000.9 1354.78 1013.05 L 1294.76 1075.44 L 1117.12 1261.77 C 1103.94 1271.98 1092.62 1287.02 1080.87 1298.94 C 1053.13 1327.1 1026.04 1355.86 998.528 1384.24 C 984.874 1398.33 971.452 1412.76 957.088 1426.12 C 941.837 1438.35 924.106 1447 904.243 1447.13 A 78.4115 78.4115 0 0 1 848.509 1424.46 A 76.0474 76.0474 0 0 1 825.887 1370 C 826.222 1335.59 847.491 1316.35 870.251 1293.83 C 862.619 1286.91 849.939 1273.08 845.984 1263.73 C 834.739 1257.33 824.783 1244.4 814.926 1235.78 C 806.838 1228.7 797.822 1222.51 790.012 1215.15 C 788.568 1213.79 787.713 1212.5 786.802 1210.76 C 775.321 1213.31 765.133 1220.29 753.063 1222.25 C 732.723 1225.55 710.49 1218.28 694.165 1206.19 C 680.494 1196.06 668.758 1179.8 666.001 1162.78 C 664.837 1155.6 665.122 1148.28 664.052 1141.07 L 663.898 1140.09 C 665.248 1127.51 667.836 1115.86 674.944 1105.18 C 683.1 1092.92 694.702 1082.62 704.959 1072.15 L 740.106 1035.65 L 911.246 856.854 L 956.081 810.154 C 967.172 798.635 978.914 787.303 988.277 774.304 C 994.984 775.097 1107.9 646.282 1128.28 629 C 1135.87 622.559 1143.32 618.477 1152.65 615.056 z M 1238.13 740.419 C 1231.43 747.755 1216.67 761.307 1213.58 769.844 C 1198.46 780.427 1185.7 797.693 1173 811.241 L 1122.49 864.063 L 890.753 1105.88 C 872.549 1124.64 854.059 1143.13 836.018 1162.04 C 819.868 1178.97 805.37 1196.3 786.802 1210.76 C 787.713 1212.5 788.568 1213.79 790.012 1215.15 C 797.822 1222.51 806.838 1228.7 814.926 1235.78 C 824.783 1244.4 834.739 1257.33 845.984 1263.73 C 849.939 1273.08 862.619 1286.91 870.251 1293.83 C 878.737 1284.93 888.726 1275.63 895.587 1265.42 C 908.307 1255.34 919.188 1241.77 930.324 1229.9 A 5190.37 5190.37 0 0 1 985.939 1171.25 L 1204.52 942.04 L 1247.88 896.969 C 1261.34 882.879 1274.67 865.347 1291.69 855.373 C 1304.75 847.724 1317.76 845.651 1332.62 844.6 C 1336.45 844.33 1341.35 844.586 1344.92 843.161 C 1345.31 843.005 1345.66 842.774 1346.04 842.58 C 1327.32 829.446 1309.68 814.03 1293.1 798.323 C 1284.23 789.92 1275.54 780.446 1266.08 772.774 C 1264.52 771.505 1263.12 770.934 1261.21 770.371 L 1262.33 769.794 C 1260.81 763.512 1243.02 747.751 1238.13 740.419 z"/>
<path transform="translate(0,0)" fill="rgb(82,168,248)" d="M 845.984 1263.73 C 862.02 1263.76 879.792 1262.52 895.587 1265.42 C 888.726 1275.63 878.737 1284.93 870.251 1293.83 C 862.619 1286.91 849.939 1273.08 845.984 1263.73 z"/>
<path transform="translate(0,0)" fill="rgb(254,193,58)" d="M 1238.13 740.419 C 1243.02 747.751 1260.81 763.512 1262.33 769.794 L 1261.21 770.371 C 1246.22 773.724 1228.57 772.875 1213.58 769.844 C 1216.67 761.307 1231.43 747.755 1238.13 740.419 z"/>
<path transform="translate(0,0)" fill="currentcolor" d="M 1152.65 615.056 C 1174.08 607.661 1195.22 608.03 1215.75 618.187 A 74.9356 74.9356 0 0 1 1254.05 662.602 A 81.6446 81.6446 0 0 1 1249.17 724.491 C 1246.18 730.311 1242.29 735.392 1238.13 740.419 C 1231.43 747.755 1216.67 761.307 1213.58 769.844 C 1198.46 780.427 1185.7 797.693 1173 811.241 L 1122.49 864.063 L 890.753 1105.88 C 872.549 1124.64 854.059 1143.13 836.018 1162.04 C 819.868 1178.97 805.37 1196.3 786.802 1210.76 C 775.321 1213.31 765.133 1220.29 753.063 1222.25 C 732.723 1225.55 710.49 1218.28 694.165 1206.19 C 680.494 1196.06 668.758 1179.8 666.001 1162.78 C 664.837 1155.6 665.122 1148.28 664.052 1141.07 L 663.898 1140.09 C 665.248 1127.51 667.836 1115.86 674.944 1105.18 C 683.1 1092.92 694.702 1082.62 704.959 1072.15 L 740.106 1035.65 L 911.246 856.854 L 956.081 810.154 C 967.172 798.635 978.914 787.303 988.277 774.304 C 994.984 775.097 1107.9 646.282 1128.28 629 C 1135.87 622.559 1143.32 618.477 1152.65 615.056 z"/>
<path transform="translate(0,0)" fill="rgb(249,83,89)" d="M 1059.04 178.046 L 1537.17 171.236 C 1610.42 169.852 1683.97 170.473 1757.17 167.363 A 22616.1 22616.1 0 0 1 1720.09 415.8 L 1668.65 757.211 A 7446.09 7446.09 0 0 0 1647.61 901.038 L 1641.51 945.449 C 1640.43 953.311 1639.94 962.452 1637.57 969.997 C 1628.9 966.809 1619.08 965.258 1610.06 963.148 A 661.483 661.483 0 0 1 1564.63 951.25 C 1505.76 933.377 1449.47 905.378 1397.17 873.293 C 1388.64 870.593 1380.95 860.259 1373.06 855.479 C 1365.52 850.903 1352.84 849.119 1346.65 843.29 C 1346.42 843.076 1346.24 842.817 1346.04 842.58 C 1327.32 829.446 1309.68 814.03 1293.1 798.323 C 1284.23 789.92 1275.54 780.446 1266.08 772.774 C 1264.52 771.505 1263.12 770.934 1261.21 770.371 L 1262.33 769.794 C 1260.81 763.512 1243.02 747.751 1238.13 740.419 C 1242.29 735.392 1246.18 730.311 1249.17 724.491 A 81.6446 81.6446 0 0 0 1254.05 662.602 A 74.9356 74.9356 0 0 0 1215.75 618.187 C 1195.22 608.03 1174.08 607.661 1152.65 615.056 C 1089.28 503.625 1060.53 369.488 1058.22 241.94 C 1057.89 223.518 1055.64 195.438 1059.04 178.046 z"/>
<path transform="translate(0,0)" fill="rgb(74,205,153)" d="M 441.404 1076.27 C 519.521 1085.21 592.359 1107.81 663.898 1140.09 L 664.052 1141.07 C 665.122 1148.28 664.837 1155.6 666.001 1162.78 C 668.758 1179.8 680.494 1196.06 694.165 1206.19 C 710.49 1218.28 732.723 1225.55 753.063 1222.25 C 765.133 1220.29 775.321 1213.31 786.802 1210.76 C 787.713 1212.5 788.568 1213.79 790.012 1215.15 C 797.822 1222.51 806.838 1228.7 814.926 1235.78 C 824.783 1244.4 834.739 1257.33 845.984 1263.73 C 849.939 1273.08 862.619 1286.91 870.251 1293.83 C 847.491 1316.35 826.222 1335.59 825.887 1370 A 76.0474 76.0474 0 0 0 848.509 1424.46 A 78.4115 78.4115 0 0 0 904.243 1447.13 C 924.106 1447 941.837 1438.35 957.088 1426.12 C 970.967 1445.97 980.201 1471.8 989.09 1494.19 C 999.409 1520.18 1010.05 1546.29 1017.95 1573.14 C 1036.3 1635.52 1044.15 1706.43 1046.22 1771.31 C 1046.61 1783.45 1046.9 1795.68 1046.24 1807.81 C 1045.31 1824.83 1041.16 1849.11 1044.36 1865.46 A 193.312 193.312 0 0 1 1040.21 1872.3 C 1030.89 1875.88 938.734 1874.89 923.211 1875.23 L 494.904 1882.32 C 442.491 1882.94 389.841 1885.35 337.451 1884.97 C 329.649 1884.92 322.854 1884.61 315.284 1882.62 C 321.033 1856.73 324.139 1830.07 328.264 1803.87 L 351.641 1652.65 L 418.069 1224.58 L 434.583 1118 C 436.077 1108.24 437.891 1083.94 441.404 1076.27 z"/>
<path transform="translate(0,0)" fill="currentcolor" d="M 1379.06 1261.96 C 1365.48 1241.1 1358.22 1221.17 1363.63 1196.07 C 1368.02 1175.74 1381.15 1158.51 1398.66 1147.57 C 1417.19 1136 1439.01 1133.12 1460.13 1138.31 C 1471.24 1141.04 1480.45 1146.99 1489.46 1153.88 C 1506.95 1167.26 1523.09 1182.9 1539.89 1197.18 L 1676.41 1315.13 L 1834.06 1451.5 C 1856.47 1471.07 1903.34 1505.79 1917.48 1529.5 C 1930 1550.5 1932.83 1576.98 1926.85 1600.5 C 1922.84 1616.26 1914.55 1629.75 1903.58 1641.63 C 1880.71 1666.41 1853.85 1688.16 1829.09 1711.1 L 1668.63 1858.98 L 1541.76 1975.93 C 1522.05 1994.15 1497.23 2021.92 1474.46 2035.11 C 1456.63 2045.43 1432.04 2047.33 1412.36 2041.87 A 75.7816 75.7816 0 0 1 1366.3 2006.03 C 1356.05 1987.83 1353.11 1963.49 1358.87 1943.39 C 1368.91 1908.34 1408.9 1892.41 1429.06 1864.16 A 17961.7 17961.7 0 0 0 1162.03 1864.21 L 1089.19 1864.11 C 1074.82 1864.08 1058.43 1862.43 1044.36 1865.46 C 1041.16 1849.11 1045.31 1824.83 1046.24 1807.81 C 1046.9 1795.68 1046.61 1783.45 1046.22 1771.31 C 1044.15 1706.43 1036.3 1635.52 1017.95 1573.14 C 1010.05 1546.29 999.409 1520.18 989.09 1494.19 C 980.201 1471.8 970.967 1445.97 957.088 1426.12 C 971.452 1412.76 984.874 1398.33 998.528 1384.24 C 1026.04 1355.86 1053.13 1327.1 1080.87 1298.94 C 1092.62 1287.02 1103.94 1271.98 1117.12 1261.77 C 1125.07 1264.74 1362.95 1264.89 1379.06 1261.96 z"/>
<path transform="translate(0,0)" fill="rgb(67,144,215)" d="M 1457.21 1328.71 C 1481.98 1347.45 1505.08 1369.84 1528.54 1390.26 L 1672.75 1515.55 C 1695.81 1535.41 1718.3 1557.76 1743.47 1574.86 C 1730.58 1589.49 1715.26 1602.19 1700.91 1615.37 A 5592 5592 0 0 1 1632.42 1678.4 L 1456.4 1840.76 C 1455.81 1839.01 1455.26 1837.37 1455.13 1835.52 C 1454.57 1827.58 1455.63 1819.03 1455.72 1811.04 C 1455.91 1795.56 1455.44 1780.03 1455.35 1764.54 L 1455.71 1567.02 L 1455.59 1398.49 C 1455.62 1382.24 1453.73 1342.69 1457.21 1328.71 z"/>
<path transform="translate(0,0)" fill="rgb(82,168,248)" d="M 1379.06 1261.96 C 1389.19 1268.56 1398.52 1278.32 1407.73 1286.29 L 1457.21 1328.71 C 1453.73 1342.69 1455.62 1382.24 1455.59 1398.49 L 1455.71 1567.02 L 1455.35 1764.54 C 1455.44 1780.03 1455.91 1795.56 1455.72 1811.04 C 1455.63 1819.03 1454.57 1827.58 1455.13 1835.52 C 1455.26 1837.37 1455.81 1839.01 1456.4 1840.76 C 1450.85 1846.06 1435.99 1862.67 1429.37 1864.26 L 1429.06 1864.16 A 17961.7 17961.7 0 0 0 1162.03 1864.21 L 1089.19 1864.11 C 1074.82 1864.08 1058.43 1862.43 1044.36 1865.46 C 1041.16 1849.11 1045.31 1824.83 1046.24 1807.81 C 1046.9 1795.68 1046.61 1783.45 1046.22 1771.31 C 1044.15 1706.43 1036.3 1635.52 1017.95 1573.14 C 1010.05 1546.29 999.409 1520.18 989.09 1494.19 C 980.201 1471.8 970.967 1445.97 957.088 1426.12 C 971.452 1412.76 984.874 1398.33 998.528 1384.24 C 1026.04 1355.86 1053.13 1327.1 1080.87 1298.94 C 1092.62 1287.02 1103.94 1271.98 1117.12 1261.77 C 1125.07 1264.74 1362.95 1264.89 1379.06 1261.96 z"/>
</svg>
